<svg width="24" height="24" viewBox="0 0 24 24" fill="none" xmlns="http://www.w3.org/2000/svg">
<g clip-path="url(#clip0_1_865)">
<path d="M11.99 4C6.47 4 2 8.48 2 14C2 19.52 6.47 24 11.99 24C17.52 24 22 19.52 22 14C22 8.48 17.52 4 11.99 4ZM18.92 10H15.97C15.65 8.75 15.19 7.55 14.59 6.44C16.43 7.07 17.96 8.35 18.92 10ZM12 6.04C12.83 7.24 13.48 8.57 13.91 10H10.09C10.52 8.57 11.17 7.24 12 6.04ZM4.26 16C4.1 15.36 4 14.69 4 14C4 13.31 4.1 12.64 4.26 12H7.64C7.56 12.66 7.5 13.32 7.5 14C7.5 14.68 7.56 15.34 7.64 16H4.26ZM5.08 18H8.03C8.35 19.25 8.81 20.45 9.41 21.56C7.57 20.93 6.04 19.66 5.08 18V18ZM8.03 10H5.08C6.04 8.34 7.57 7.07 9.41 6.44C8.81 7.55 8.35 8.75 8.03 10V10ZM12 21.96C11.17 20.76 10.52 19.43 10.09 18H13.91C13.48 19.43 12.83 20.76 12 21.96ZM14.34 16H9.66C9.57 15.34 9.5 14.68 9.5 14C9.5 13.32 9.57 12.65 9.66 12H14.34C14.43 12.65 14.5 13.32 14.5 14C14.5 14.68 14.43 15.34 14.34 16ZM14.59 21.56C15.19 20.45 15.65 19.25 15.97 18H18.92C17.96 19.65 16.43 20.93 14.59 21.56V21.56ZM16.36 16C16.44 15.34 16.5 14.68 16.5 14C16.5 13.32 16.44 12.66 16.36 12H19.74C19.9 12.64 20 13.31 20 14C20 14.69 19.9 15.36 19.74 16H16.36Z" fill="#1F3F68"/>
</g>
<defs>
<clipPath id="clip0_1_865">
<rect width="24" height="24" fill="white"/>
</clipPath>
</defs>
</svg>
